<?xml version="1.0" encoding="iso-8859-1"?>
<!-- Uploaded to: SVG Repo, www.svgrepo.com, Generator: SVG Repo Mixer Tools -->
<!DOCTYPE svg PUBLIC "-//W3C//DTD SVG 1.1//EN" "http://www.w3.org/Graphics/SVG/1.1/DTD/svg11.dtd">
<svg fill="#000000" version="1.1" id="Capa_1" xmlns="http://www.w3.org/2000/svg" xmlns:xlink="http://www.w3.org/1999/xlink" 
	 width="800px" height="800px" viewBox="0 0 232.836 232.836"
	 xml:space="preserve">
<g>
	<path d="M200.12,100.611c-0.908-1.045-2.328-1.479-3.67-1.13c-7.849,2.07-15.16,6.767-21.146,13.581l-2.375,2.704l-0.348-3.584
		c-0.119-1.249-0.238-2.513-0.354-3.786c-1.887-20.252-4.022-43.205-22.212-56.688C121.036,30.213,107.46,12.715,101.175,1.82
		c-0.728-1.261-2.144-1.973-3.582-1.792c-1.445,0.174-2.648,1.191-3.056,2.59c-2.819,9.648-5.785,23.283-3.91,33.45
		c1.494,8.099,7.323,16.251,12.966,24.145c6.409,8.965,12.464,17.433,10.926,24.779c-0.726,3.474-3.133,6.45-7.152,8.847
		c-2.767,1.649-5.572,2.485-8.344,2.486c-5.466,0-10.788-3.368-14.985-9.482c-4.758-6.93-7.647-16.632-7.36-24.715
		c0.04-1.153-0.469-2.258-1.372-2.976c-0.905-0.719-2.097-0.964-3.21-0.663c-6.09,1.646-11.981,5.29-16.592,10.263
		c-6.409,6.911-9.734,15.524-9.122,23.634c0.737,9.645,6.1,18.18,11.287,26.438c4.584,7.296,9.324,14.84,10.406,22.81
		c0.679,5.002-0.121,8.85-2.375,11.432c-1.389,1.588-4.074,3.479-8.989,3.48c-5.7,0-12.904-2.473-19.272-6.615
		c-1.129-0.735-2.575-0.784-3.754-0.127c-1.178,0.657-1.895,1.913-1.862,3.263c0.516,21.261,7.844,40.188,21.193,54.736
		c14.812,16.144,35.751,25.033,58.96,25.033c9.444,0,19.208-1.465,29.02-4.354c32.558-9.589,55.203-43.651,51.556-77.548
		c-1.056-9.81-0.492-25.844,8.18-46.532C201.267,103.126,201.029,101.656,200.12,100.611z"/>
</g>
</svg>